<?xml version="1.0" encoding="us-ascii" standalone="no"?><svg xmlns="http://www.w3.org/2000/svg" xmlns:xlink="http://www.w3.org/1999/xlink" contentStyleType="text/css" height="805px" preserveAspectRatio="none" style="width:1203px;height:805px;background:#FFFFFF;" version="1.1" viewBox="0 0 1203 805" width="1203px" zoomAndPan="magnify"><defs/><g><!--class Product--><g id="elem_Product"><rect codeLine="3" fill="#F1F1F1" height="219.6113" id="Product" rx="2.5" ry="2.5" style="stroke:#181818;stroke-width:0.5;" width="145" x="415" y="451"/><ellipse cx="457.45" cy="467" fill="#ADD1B2" rx="11" ry="11" style="stroke:#181818;stroke-width:1.0;"/><path d="M460.4188,472.6406 Q459.8406,472.9375 459.2,473.0781 Q458.5594,473.2344 457.8563,473.2344 Q455.3563,473.2344 454.0281,471.5938 Q452.7156,469.9375 452.7156,466.8125 Q452.7156,463.6875 454.0281,462.0313 Q455.3563,460.375 457.8563,460.375 Q458.5594,460.375 459.2,460.5313 Q459.8563,460.6875 460.4188,460.9844 L460.4188,463.7031 Q459.7938,463.125 459.2,462.8594 Q458.6063,462.5781 457.9813,462.5781 Q456.6375,462.5781 455.95,463.6563 Q455.2625,464.7188 455.2625,466.8125 Q455.2625,468.9063 455.95,469.9844 Q456.6375,471.0469 457.9813,471.0469 Q458.6063,471.0469 459.2,470.7813 Q459.7938,470.5 460.4188,469.9219 L460.4188,472.6406 Z " fill="#000000"/><text fill="#000000" font-family="sans-serif" font-size="14" lengthAdjust="spacing" textLength="52" x="477.55" y="472.432">Product</text><line style="stroke:#181818;stroke-width:0.5;" x1="416" x2="559" y1="483" y2="483"/><rect fill="none" height="6" style="stroke:#C82930;stroke-width:1.0;" width="6" x="423" y="495.034"/><text fill="#000000" font-family="sans-serif" font-size="14" lengthAdjust="spacing" textLength="58" x="435" y="501.9659">String id</text><rect fill="none" height="6" style="stroke:#C82930;stroke-width:1.0;" width="6" x="423" y="514.1019"/><text fill="#000000" font-family="sans-serif" font-size="14" lengthAdjust="spacing" textLength="83" x="435" y="521.0339">String name</text><rect fill="none" height="6" style="stroke:#C82930;stroke-width:1.0;" width="6" x="423" y="533.1698"/><text fill="#000000" font-family="sans-serif" font-size="14" lengthAdjust="spacing" textLength="85" x="435" y="540.1018">double price</text><rect fill="none" height="6" style="stroke:#C82930;stroke-width:1.0;" width="6" x="423" y="552.2377"/><text fill="#000000" font-family="sans-serif" font-size="14" lengthAdjust="spacing" textLength="56" x="435" y="559.1697">int stock</text><line style="stroke:#181818;stroke-width:0.5;" x1="416" x2="559" y1="567.2717" y2="567.2717"/><ellipse cx="426" cy="582.3056" fill="#84BE84" rx="3" ry="3" style="stroke:#038048;stroke-width:1.0;"/><text fill="#000000" font-family="sans-serif" font-size="14" lengthAdjust="spacing" textLength="93" x="435" y="586.2376">getId(): String</text><ellipse cx="426" cy="601.3735" fill="#84BE84" rx="3" ry="3" style="stroke:#038048;stroke-width:1.0;"/><text fill="#000000" font-family="sans-serif" font-size="14" lengthAdjust="spacing" textLength="119" x="435" y="605.3055">getName(): String</text><ellipse cx="426" cy="620.4415" fill="#84BE84" rx="3" ry="3" style="stroke:#038048;stroke-width:1.0;"/><text fill="#000000" font-family="sans-serif" font-size="14" lengthAdjust="spacing" textLength="118" x="435" y="624.3734">getPrice(): double</text><ellipse cx="426" cy="639.5094" fill="#84BE84" rx="3" ry="3" style="stroke:#038048;stroke-width:1.0;"/><text fill="#000000" font-family="sans-serif" font-size="14" lengthAdjust="spacing" textLength="91" x="435" y="643.4414">getStock(): int</text><ellipse cx="426" cy="658.5773" fill="#84BE84" rx="3" ry="3" style="stroke:#038048;stroke-width:1.0;"/><text fill="#000000" font-family="sans-serif" font-size="14" lengthAdjust="spacing" textLength="117" x="435" y="662.5093">setStock(int): void</text></g><!--class OrderItem--><g id="elem_OrderItem"><rect codeLine="15" fill="#F1F1F1" height="105.2038" id="OrderItem" rx="2.5" ry="2.5" style="stroke:#181818;stroke-width:0.5;" width="167" x="7" y="257.5"/><ellipse cx="50.8" cy="273.5" fill="#ADD1B2" rx="11" ry="11" style="stroke:#181818;stroke-width:1.0;"/><path d="M53.7688,279.1406 Q53.1906,279.4375 52.55,279.5781 Q51.9094,279.7344 51.2063,279.7344 Q48.7063,279.7344 47.3781,278.0938 Q46.0656,276.4375 46.0656,273.3125 Q46.0656,270.1875 47.3781,268.5313 Q48.7063,266.875 51.2063,266.875 Q51.9094,266.875 52.55,267.0313 Q53.2063,267.1875 53.7688,267.4844 L53.7688,270.2031 Q53.1438,269.625 52.55,269.3594 Q51.9563,269.0781 51.3313,269.0781 Q49.9875,269.0781 49.3,270.1563 Q48.6125,271.2188 48.6125,273.3125 Q48.6125,275.4063 49.3,276.4844 Q49.9875,277.5469 51.3313,277.5469 Q51.9563,277.5469 52.55,277.2813 Q53.1438,277 53.7688,276.4219 L53.7688,279.1406 Z " fill="#000000"/><text fill="#000000" font-family="sans-serif" font-size="14" lengthAdjust="spacing" textLength="71" x="71.2" y="278.932">OrderItem</text><line style="stroke:#181818;stroke-width:0.5;" x1="8" x2="173" y1="289.5" y2="289.5"/><rect fill="none" height="6" style="stroke:#C82930;stroke-width:1.0;" width="6" x="15" y="301.534"/><text fill="#000000" font-family="sans-serif" font-size="14" lengthAdjust="spacing" textLength="109" x="27" y="308.4659">Product product</text><rect fill="none" height="6" style="stroke:#C82930;stroke-width:1.0;" width="6" x="15" y="320.6019"/><text fill="#000000" font-family="sans-serif" font-size="14" lengthAdjust="spacing" textLength="78" x="27" y="327.5339">int quantity</text><line style="stroke:#181818;stroke-width:0.5;" x1="8" x2="173" y1="335.6358" y2="335.6358"/><ellipse cx="18" cy="350.6698" fill="#84BE84" rx="3" ry="3" style="stroke:#038048;stroke-width:1.0;"/><text fill="#000000" font-family="sans-serif" font-size="14" lengthAdjust="spacing" textLength="141" x="27" y="354.6018">getSubtotal(): double</text></g><!--class Order--><g id="elem_Order"><rect codeLine="21" fill="#F1F1F1" height="162.4075" id="Order" rx="2.5" ry="2.5" style="stroke:#181818;stroke-width:0.5;" width="182" x="87.5" y="7"/><ellipse cx="154.25" cy="23" fill="#ADD1B2" rx="11" ry="11" style="stroke:#181818;stroke-width:1.0;"/><path d="M157.2188,28.6406 Q156.6406,28.9375 156,29.0781 Q155.3594,29.2344 154.6563,29.2344 Q152.1563,29.2344 150.8281,27.5938 Q149.5156,25.9375 149.5156,22.8125 Q149.5156,19.6875 150.8281,18.0313 Q152.1563,16.375 154.6563,16.375 Q155.3594,16.375 156,16.5313 Q156.6563,16.6875 157.2188,16.9844 L157.2188,19.7031 Q156.5938,19.125 156,18.8594 Q155.4063,18.5781 154.7813,18.5781 Q153.4375,18.5781 152.75,19.6563 Q152.0625,20.7188 152.0625,22.8125 Q152.0625,24.9063 152.75,25.9844 Q153.4375,27.0469 154.7813,27.0469 Q155.4063,27.0469 156,26.7813 Q156.5938,26.5 157.2188,25.9219 L157.2188,28.6406 Z " fill="#000000"/><text fill="#000000" font-family="sans-serif" font-size="14" lengthAdjust="spacing" textLength="40" x="174.75" y="28.432">Order</text><line style="stroke:#181818;stroke-width:0.5;" x1="88.5" x2="268.5" y1="39" y2="39"/><rect fill="none" height="6" style="stroke:#C82930;stroke-width:1.0;" width="6" x="95.5" y="51.034"/><text fill="#000000" font-family="sans-serif" font-size="14" lengthAdjust="spacing" textLength="58" x="107.5" y="57.9659">String id</text><rect fill="none" height="6" style="stroke:#C82930;stroke-width:1.0;" width="6" x="95.5" y="70.1019"/><text fill="#000000" font-family="sans-serif" font-size="14" lengthAdjust="spacing" textLength="151" x="107.5" y="77.0339">List&lt;OrderItem&gt; items</text><rect fill="none" height="6" style="stroke:#C82930;stroke-width:1.0;" width="6" x="95.5" y="89.1698"/><text fill="#000000" font-family="sans-serif" font-size="14" lengthAdjust="spacing" textLength="132" x="107.5" y="96.1018">LocalDateTime date</text><rect fill="none" height="6" style="stroke:#C82930;stroke-width:1.0;" width="6" x="95.5" y="108.2377"/><text fill="#000000" font-family="sans-serif" font-size="14" lengthAdjust="spacing" textLength="127" x="107.5" y="115.1697">OrderStatus status</text><line style="stroke:#181818;stroke-width:0.5;" x1="88.5" x2="268.5" y1="123.2717" y2="123.2717"/><ellipse cx="98.5" cy="138.3056" fill="#84BE84" rx="3" ry="3" style="stroke:#038048;stroke-width:1.0;"/><text fill="#000000" font-family="sans-serif" font-size="14" lengthAdjust="spacing" textLength="156" x="107.5" y="142.2376">calculateTotal(): double</text><ellipse cx="98.5" cy="157.3735" fill="#84BE84" rx="3" ry="3" style="stroke:#038048;stroke-width:1.0;"/><text fill="#000000" font-family="sans-serif" font-size="14" lengthAdjust="spacing" textLength="93" x="107.5" y="161.3055">getId(): String</text></g><!--class OrderStatus--><g id="elem_OrderStatus"><rect codeLine="30" fill="#F1F1F1" height="105.2038" id="OrderStatus" rx="2.5" ry="2.5" style="stroke:#181818;stroke-width:0.5;" width="114" x="209.5" y="257.5"/><ellipse cx="224.5" cy="273.5" fill="#EB937F" rx="11" ry="11" style="stroke:#181818;stroke-width:1.0;"/><path d="M228.6094,279.5 L220.8906,279.5 L220.8906,267.1094 L228.6094,267.1094 L228.6094,269.2656 L223.3438,269.2656 L223.3438,271.9375 L228.1094,271.9375 L228.1094,274.0938 L223.3438,274.0938 L223.3438,277.3438 L228.6094,277.3438 L228.6094,279.5 Z " fill="#000000"/><text fill="#000000" font-family="sans-serif" font-size="14" lengthAdjust="spacing" textLength="82" x="238.5" y="278.932">OrderStatus</text><line style="stroke:#181818;stroke-width:0.5;" x1="210.5" x2="322.5" y1="289.5" y2="289.5"/><text fill="#000000" font-family="sans-serif" font-size="14" lengthAdjust="spacing" textLength="63" x="215.5" y="308.4659">PENDING</text><text fill="#000000" font-family="sans-serif" font-size="14" lengthAdjust="spacing" textLength="82" x="215.5" y="327.5339">COMPLETED</text><text fill="#000000" font-family="sans-serif" font-size="14" lengthAdjust="spacing" textLength="78" x="215.5" y="346.6018">CANCELLED</text><line style="stroke:#181818;stroke-width:0.5;" x1="210.5" x2="322.5" y1="354.7038" y2="354.7038"/></g><!--class ProductFactory--><g id="elem_ProductFactory"><rect codeLine="37" fill="#F1F1F1" height="67.0679" id="ProductFactory" rx="2.5" ry="2.5" style="stroke:#181818;stroke-width:0.5;" width="258" x="358.5" y="276.5"/><ellipse cx="433.25" cy="292.5" fill="#ADD1B2" rx="11" ry="11" style="stroke:#181818;stroke-width:1.0;"/><path d="M436.2188,298.1406 Q435.6406,298.4375 435,298.5781 Q434.3594,298.7344 433.6563,298.7344 Q431.1563,298.7344 429.8281,297.0938 Q428.5156,295.4375 428.5156,292.3125 Q428.5156,289.1875 429.8281,287.5313 Q431.1563,285.875 433.6563,285.875 Q434.3594,285.875 435,286.0313 Q435.6563,286.1875 436.2188,286.4844 L436.2188,289.2031 Q435.5938,288.625 435,288.3594 Q434.4063,288.0781 433.7813,288.0781 Q432.4375,288.0781 431.75,289.1563 Q431.0625,290.2188 431.0625,292.3125 Q431.0625,294.4063 431.75,295.4844 Q432.4375,296.5469 433.7813,296.5469 Q434.4063,296.5469 435,296.2813 Q435.5938,296 436.2188,295.4219 L436.2188,298.1406 Z " fill="#000000"/><text fill="#000000" font-family="sans-serif" font-size="14" lengthAdjust="spacing" textLength="100" x="453.75" y="297.932">ProductFactory</text><line style="stroke:#181818;stroke-width:0.5;" x1="359.5" x2="615.5" y1="308.5" y2="308.5"/><line style="stroke:#181818;stroke-width:0.5;" x1="359.5" x2="615.5" y1="316.5" y2="316.5"/><ellipse cx="369.5" cy="331.534" fill="#84BE84" rx="3" ry="3" style="stroke:#038048;stroke-width:1.0;"/><text fill="#000000" font-family="sans-serif" font-size="14" lengthAdjust="spacing" textLength="232" x="378.5" y="335.4659">create(String, double, int): Product</text></g><!--class Inventory--><g id="elem_Inventory"><rect codeLine="42" fill="#F1F1F1" height="162.4075" id="Inventory" rx="2.5" ry="2.5" style="stroke:#181818;stroke-width:0.5;" width="237" x="652" y="229"/><ellipse cx="734.25" cy="245" fill="#ADD1B2" rx="11" ry="11" style="stroke:#181818;stroke-width:1.0;"/><path d="M737.2188,250.6406 Q736.6406,250.9375 736,251.0781 Q735.3594,251.2344 734.6563,251.2344 Q732.1563,251.2344 730.8281,249.5938 Q729.5156,247.9375 729.5156,244.8125 Q729.5156,241.6875 730.8281,240.0313 Q732.1563,238.375 734.6563,238.375 Q735.3594,238.375 736,238.5313 Q736.6563,238.6875 737.2188,238.9844 L737.2188,241.7031 Q736.5938,241.125 736,240.8594 Q735.4063,240.5781 734.7813,240.5781 Q733.4375,240.5781 732.75,241.6563 Q732.0625,242.7188 732.0625,244.8125 Q732.0625,246.9063 732.75,247.9844 Q733.4375,249.0469 734.7813,249.0469 Q735.4063,249.0469 736,248.7813 Q736.5938,248.5 737.2188,247.9219 L737.2188,250.6406 Z " fill="#000000"/><text fill="#000000" font-family="sans-serif" font-size="14" lengthAdjust="spacing" textLength="64" x="754.75" y="250.432">Inventory</text><line style="stroke:#181818;stroke-width:0.5;" x1="653" x2="888" y1="261" y2="261"/><rect fill="none" height="6" style="stroke:#C82930;stroke-width:1.0;" width="6" x="660" y="273.034"/><text fill="#000000" font-family="sans-serif" font-size="14" lengthAdjust="spacing" textLength="211" x="672" y="279.9659">Map&lt;String, Product&gt; products</text><rect fill="none" height="6" style="stroke:#C82930;stroke-width:1.0;" width="6" x="660" y="292.1019"/><text fill="#000000" font-family="sans-serif" font-size="14" lengthAdjust="spacing" textLength="165" x="672" y="299.0339">static Inventory instance</text><line style="stroke:#181818;stroke-width:0.5;" x1="653" x2="888" y1="307.1358" y2="307.1358"/><rect fill="#F24D5C" height="6" style="stroke:#C82930;stroke-width:1.0;" width="6" x="660" y="319.1698"/><text fill="#000000" font-family="sans-serif" font-size="14" lengthAdjust="spacing" textLength="72" x="672" y="326.1018">Inventory()</text><ellipse cx="663" cy="341.2377" fill="#84BE84" rx="3" ry="3" style="stroke:#038048;stroke-width:1.0;"/><text fill="#000000" font-family="sans-serif" font-size="14" lengthAdjust="spacing" textLength="160" x="672" y="345.1697">getInstance(): Inventory</text><ellipse cx="663" cy="360.3056" fill="#84BE84" rx="3" ry="3" style="stroke:#038048;stroke-width:1.0;"/><text fill="#000000" font-family="sans-serif" font-size="14" lengthAdjust="spacing" textLength="174" x="672" y="364.2376">addProduct(Product): void</text><ellipse cx="663" cy="379.3735" fill="#84BE84" rx="3" ry="3" style="stroke:#038048;stroke-width:1.0;"/><text fill="#000000" font-family="sans-serif" font-size="14" lengthAdjust="spacing" textLength="183" x="672" y="383.3055">getProduct(String): Product</text></g><!--class NotificationStrategy--><g id="elem_NotificationStrategy"><rect codeLine="52" fill="#F1F1F1" height="67.0679" id="NotificationStrategy" rx="2.5" ry="2.5" style="stroke:#181818;stroke-width:0.5;" width="159" x="954" y="527.5"/><ellipse cx="969" cy="543.5" fill="#B4A7E5" rx="11" ry="11" style="stroke:#181818;stroke-width:1.0;"/><path d="M964.9219,539.2656 L964.9219,537.1094 L972.3125,537.1094 L972.3125,539.2656 L969.8438,539.2656 L969.8438,547.3438 L972.3125,547.3438 L972.3125,549.5 L964.9219,549.5 L964.9219,547.3438 L967.3906,547.3438 L967.3906,539.2656 L964.9219,539.2656 Z " fill="#000000"/><text fill="#000000" font-family="sans-serif" font-size="14" font-style="italic" lengthAdjust="spacing" textLength="127" x="983" y="548.932">NotificationStrategy</text><line style="stroke:#181818;stroke-width:0.5;" x1="955" x2="1112" y1="559.5" y2="559.5"/><line style="stroke:#181818;stroke-width:0.5;" x1="955" x2="1112" y1="567.5" y2="567.5"/><ellipse cx="965" cy="582.534" fill="#84BE84" rx="3" ry="3" style="stroke:#038048;stroke-width:1.0;"/><text fill="#000000" font-family="sans-serif" font-size="14" lengthAdjust="spacing" textLength="118" x="974" y="586.4659">send(String): void</text></g><!--class EmailNotification--><g id="elem_EmailNotification"><rect codeLine="56" fill="#F1F1F1" height="67.0679" id="EmailNotification" rx="2.5" ry="2.5" style="stroke:#181818;stroke-width:0.5;" width="147" x="870" y="731"/><ellipse cx="885" cy="747" fill="#ADD1B2" rx="11" ry="11" style="stroke:#181818;stroke-width:1.0;"/><path d="M887.9688,752.6406 Q887.3906,752.9375 886.75,753.0781 Q886.1094,753.2344 885.4063,753.2344 Q882.9063,753.2344 881.5781,751.5938 Q880.2656,749.9375 880.2656,746.8125 Q880.2656,743.6875 881.5781,742.0313 Q882.9063,740.375 885.4063,740.375 Q886.1094,740.375 886.75,740.5313 Q887.4063,740.6875 887.9688,740.9844 L887.9688,743.7031 Q887.3438,743.125 886.75,742.8594 Q886.1563,742.5781 885.5313,742.5781 Q884.1875,742.5781 883.5,743.6563 Q882.8125,744.7188 882.8125,746.8125 Q882.8125,748.9063 883.5,749.9844 Q884.1875,751.0469 885.5313,751.0469 Q886.1563,751.0469 886.75,750.7813 Q887.3438,750.5 887.9688,749.9219 L887.9688,752.6406 Z " fill="#000000"/><text fill="#000000" font-family="sans-serif" font-size="14" lengthAdjust="spacing" textLength="115" x="899" y="752.432">EmailNotification</text><line style="stroke:#181818;stroke-width:0.5;" x1="871" x2="1016" y1="763" y2="763"/><line style="stroke:#181818;stroke-width:0.5;" x1="871" x2="1016" y1="771" y2="771"/><ellipse cx="881" cy="786.034" fill="#84BE84" rx="3" ry="3" style="stroke:#038048;stroke-width:1.0;"/><text fill="#000000" font-family="sans-serif" font-size="14" lengthAdjust="spacing" textLength="118" x="890" y="789.9659">send(String): void</text></g><!--class SMSNotification--><g id="elem_SMSNotification"><rect codeLine="60" fill="#F1F1F1" height="67.0679" id="SMSNotification" rx="2.5" ry="2.5" style="stroke:#181818;stroke-width:0.5;" width="144" x="1052.5" y="731"/><ellipse cx="1069.75" cy="747" fill="#ADD1B2" rx="11" ry="11" style="stroke:#181818;stroke-width:1.0;"/><path d="M1072.7188,752.6406 Q1072.1406,752.9375 1071.5,753.0781 Q1070.8594,753.2344 1070.1563,753.2344 Q1067.6563,753.2344 1066.3281,751.5938 Q1065.0156,749.9375 1065.0156,746.8125 Q1065.0156,743.6875 1066.3281,742.0313 Q1067.6563,740.375 1070.1563,740.375 Q1070.8594,740.375 1071.5,740.5313 Q1072.1563,740.6875 1072.7188,740.9844 L1072.7188,743.7031 Q1072.0938,743.125 1071.5,742.8594 Q1070.9063,742.5781 1070.2813,742.5781 Q1068.9375,742.5781 1068.25,743.6563 Q1067.5625,744.7188 1067.5625,746.8125 Q1067.5625,748.9063 1068.25,749.9844 Q1068.9375,751.0469 1070.2813,751.0469 Q1070.9063,751.0469 1071.5,750.7813 Q1072.0938,750.5 1072.7188,749.9219 L1072.7188,752.6406 Z " fill="#000000"/><text fill="#000000" font-family="sans-serif" font-size="14" lengthAdjust="spacing" textLength="107" x="1084.25" y="752.432">SMSNotification</text><line style="stroke:#181818;stroke-width:0.5;" x1="1053.5" x2="1195.5" y1="763" y2="763"/><line style="stroke:#181818;stroke-width:0.5;" x1="1053.5" x2="1195.5" y1="771" y2="771"/><ellipse cx="1063.5" cy="786.034" fill="#84BE84" rx="3" ry="3" style="stroke:#038048;stroke-width:1.0;"/><text fill="#000000" font-family="sans-serif" font-size="14" lengthAdjust="spacing" textLength="118" x="1072.5" y="789.9659">send(String): void</text></g><!--class OrderObserver--><g id="elem_OrderObserver"><rect codeLine="65" fill="#F1F1F1" height="67.0679" id="OrderObserver" rx="2.5" ry="2.5" style="stroke:#181818;stroke-width:0.5;" width="158" x="954.5" y="54.5"/><ellipse cx="983.9" cy="70.5" fill="#B4A7E5" rx="11" ry="11" style="stroke:#181818;stroke-width:1.0;"/><path d="M979.8219,66.2656 L979.8219,64.1094 L987.2125,64.1094 L987.2125,66.2656 L984.7438,66.2656 L984.7438,74.3438 L987.2125,74.3438 L987.2125,76.5 L979.8219,76.5 L979.8219,74.3438 L982.2906,74.3438 L982.2906,66.2656 L979.8219,66.2656 Z " fill="#000000"/><text fill="#000000" font-family="sans-serif" font-size="14" font-style="italic" lengthAdjust="spacing" textLength="94" x="1001.1" y="75.932">OrderObserver</text><line style="stroke:#181818;stroke-width:0.5;" x1="955.5" x2="1111.5" y1="86.5" y2="86.5"/><line style="stroke:#181818;stroke-width:0.5;" x1="955.5" x2="1111.5" y1="94.5" y2="94.5"/><ellipse cx="965.5" cy="109.534" fill="#84BE84" rx="3" ry="3" style="stroke:#038048;stroke-width:1.0;"/><text fill="#000000" font-family="sans-serif" font-size="14" lengthAdjust="spacing" textLength="132" x="974.5" y="113.4659">update(Order): void</text></g><!--class CustomerNotifier--><g id="elem_CustomerNotifier"><rect codeLine="69" fill="#F1F1F1" height="86.1358" id="CustomerNotifier" rx="2.5" ry="2.5" style="stroke:#181818;stroke-width:0.5;" width="219" x="924" y="267"/><ellipse cx="971.25" cy="283" fill="#ADD1B2" rx="11" ry="11" style="stroke:#181818;stroke-width:1.0;"/><path d="M974.2188,288.6406 Q973.6406,288.9375 973,289.0781 Q972.3594,289.2344 971.6563,289.2344 Q969.1563,289.2344 967.8281,287.5938 Q966.5156,285.9375 966.5156,282.8125 Q966.5156,279.6875 967.8281,278.0313 Q969.1563,276.375 971.6563,276.375 Q972.3594,276.375 973,276.5313 Q973.6563,276.6875 974.2188,276.9844 L974.2188,279.7031 Q973.5938,279.125 973,278.8594 Q972.4063,278.5781 971.7813,278.5781 Q970.4375,278.5781 969.75,279.6563 Q969.0625,280.7188 969.0625,282.8125 Q969.0625,284.9063 969.75,285.9844 Q970.4375,287.0469 971.7813,287.0469 Q972.4063,287.0469 973,286.7813 Q973.5938,286.5 974.2188,285.9219 L974.2188,288.6406 Z " fill="#000000"/><text fill="#000000" font-family="sans-serif" font-size="14" lengthAdjust="spacing" textLength="116" x="991.75" y="288.432">CustomerNotifier</text><line style="stroke:#181818;stroke-width:0.5;" x1="925" x2="1142" y1="299" y2="299"/><rect fill="none" height="6" style="stroke:#C82930;stroke-width:1.0;" width="6" x="932" y="311.034"/><text fill="#000000" font-family="sans-serif" font-size="14" lengthAdjust="spacing" textLength="193" x="944" y="317.9659">NotificationStrategy strategy</text><line style="stroke:#181818;stroke-width:0.5;" x1="925" x2="1142" y1="326.0679" y2="326.0679"/><ellipse cx="935" cy="341.1019" fill="#84BE84" rx="3" ry="3" style="stroke:#038048;stroke-width:1.0;"/><text fill="#000000" font-family="sans-serif" font-size="14" lengthAdjust="spacing" textLength="132" x="944" y="345.0339">update(Order): void</text></g><!--link ProductFactory to Product--><g id="link_ProductFactory_Product"><path codeLine="75" d="M487.5,343.55 C487.5,371.04 487.5,406.03 487.5,444.97 " fill="none" id="ProductFactory-to-Product" style="stroke:#181818;stroke-width:1.0;"/><polygon fill="#181818" points="487.5,450.97,491.5,441.97,487.5,445.97,483.5,441.97,487.5,450.97" style="stroke:#181818;stroke-width:1.0;"/></g><!--link Inventory to Product--><g id="link_Inventory_Product"><path codeLine="76" d="M679.4,391.16 C640.78,425.13 600.9042,460.2162 564.5642,492.1962 " fill="none" id="Inventory-to-Product" style="stroke:#181818;stroke-width:1.0;"/><polygon fill="#181818" points="560.06,496.16,569.4589,493.2171,563.8135,492.8568,564.1738,487.2114,560.06,496.16" style="stroke:#181818;stroke-width:1.0;"/></g><!--link Order to OrderItem--><g id="link_Order_OrderItem"><path codeLine="77" d="M146.48,169.05 C134.69,198.53 123.8776,225.5588 113.3576,251.8688 " fill="none" id="Order-to-OrderItem" style="stroke:#181818;stroke-width:1.0;"/><polygon fill="#181818" points="111.13,257.44,118.1855,250.5683,112.9863,252.7974,110.7573,247.5982,111.13,257.44" style="stroke:#181818;stroke-width:1.0;"/></g><!--link OrderItem to Product--><g id="link_OrderItem_Product"><path codeLine="78" d="M152.7,362.65 C165.29,372.42 178.62,382.29 191.5,391 C264.92,440.62 348.4315,487.2046 409.5015,519.6546 " fill="none" id="OrderItem-to-Product" style="stroke:#181818;stroke-width:1.0;"/><polygon fill="#181818" points="414.8,522.47,408.7292,514.7146,410.3846,520.1239,404.9754,521.7792,414.8,522.47" style="stroke:#181818;stroke-width:1.0;"/></g><!--link Order to OrderStatus--><g id="link_Order_OrderStatus"><path codeLine="79" d="M210.52,169.05 C222.31,198.53 233.1224,225.5588 243.6424,251.8688 " fill="none" id="Order-to-OrderStatus" style="stroke:#181818;stroke-width:1.0;"/><polygon fill="#181818" points="245.87,257.44,246.2427,247.5982,244.0137,252.7974,238.8145,250.5683,245.87,257.44" style="stroke:#181818;stroke-width:1.0;"/></g><!--reverse link NotificationStrategy to EmailNotification--><g id="link_NotificationStrategy_EmailNotification"><path codeLine="81" d="M1011.4978,611.2545 C994.7578,648.7245 974.89,693.23 958.15,730.69 " fill="none" id="NotificationStrategy-backto-EmailNotification" style="stroke:#181818;stroke-width:1.0;stroke-dasharray:7.0,7.0;"/><polygon fill="none" points="1018.84,594.82,1006.0196,608.8071,1016.9759,613.7019,1018.84,594.82" style="stroke:#181818;stroke-width:1.0;"/></g><!--reverse link NotificationStrategy to SMSNotification--><g id="link_NotificationStrategy_SMSNotification"><path codeLine="82" d="M1055.7315,611.2233 C1072.6615,648.6933 1092.76,693.23 1109.68,730.69 " fill="none" id="NotificationStrategy-backto-SMSNotification" style="stroke:#181818;stroke-width:1.0;stroke-dasharray:7.0,7.0;"/><polygon fill="none" points="1048.32,594.82,1050.2637,613.6938,1061.1993,608.7528,1048.32,594.82" style="stroke:#181818;stroke-width:1.0;"/></g><!--reverse link OrderObserver to CustomerNotifier--><g id="link_OrderObserver_CustomerNotifier"><path codeLine="83" d="M1033.5,139.94 C1033.5,178.53 1033.5,224.57 1033.5,266.78 " fill="none" id="OrderObserver-backto-CustomerNotifier" style="stroke:#181818;stroke-width:1.0;stroke-dasharray:7.0,7.0;"/><polygon fill="none" points="1033.5,121.94,1027.5,139.94,1039.5,139.94,1033.5,121.94" style="stroke:#181818;stroke-width:1.0;"/></g><!--link CustomerNotifier to NotificationStrategy--><g id="link_CustomerNotifier_NotificationStrategy"><path codeLine="84" d="M1033.5,353.24 C1033.5,402.5 1033.5,476.85 1033.5,521.49 " fill="none" id="CustomerNotifier-to-NotificationStrategy" style="stroke:#181818;stroke-width:1.0;"/><polygon fill="#181818" points="1033.5,527.49,1037.5,518.49,1033.5,522.49,1029.5,518.49,1033.5,527.49" style="stroke:#181818;stroke-width:1.0;"/></g><!--SRC=[ZLDjZjem4FtlKym_ikgo1wWGKWNP2Wa2QlO29lOYgucTsWuIslOmFKilrl57J08HsZ-n_MRcpSlpU0Qvj89HnWqmNWDJZP12aQgcni11AzPL5Zu8m1nAguKyWM33awGDzsUckcFDeTMY2e2G5enLrKyyVO4JjnkMFNsDTJrMOFazUd0a3WwaFLmwDWSZjSTCZo60y5cXjZyaYjzhnlN6yYRAxt-c3MlI-AkZQ86zf2xTqIfBwq7_CUUa7LjXx2ArN8B0hmaHLT5wJIr_4mq7XXiF-zpIKjiPjCajNW3cLbtjicyqJ9c8khZicX6N4tV8Y_Mc-8wxrNvtsEPl-ThjlnMhVBl5FTRDuFNVtoFwJCTt_Kehg_J5qw0QpL5A5jezHodF4EoE5O6jn8IQMoLnZ60ZprnQgjCW1Q3ddSEEjekUDD8i-ui9hZbBH3Ke518X6MShmTbJCYR6dJqfx8EKiTWZYsi_AsdSGZGeklipgz63qmLQgYb8PSKxkbO99RaXw0JNxxJYKCI0nK0g-OXZAjcLV3obUKD5FQpzH4svApzTCOFzqN1zvdgWrSzBZyVohdMZcVdGNSTLXo-vuJgqJKzWyfzDt3nYdS4FNlSUtapUVBvC5t2z_Y4QNg53qeCZrzV-83Cy4K8cTIz-lxpSNyU3t9jh86DNVSgjR-JEIATjgWNv3m00]--></g></svg>